<?xml version="1.0" encoding="utf-8"?>
<!-- Generator: Adobe Illustrator 23.1.1, SVG Export Plug-In . SVG Version: 6.00 Build 0)  -->
<svg version="1.1" id="Laag_1" xmlns="http://www.w3.org/2000/svg" xmlns:xlink="http://www.w3.org/1999/xlink" x="0px" y="0px"
	 viewBox="0 0 428.7 61.1" style="enable-background:new 0 0 428.7 61.1;" xml:space="preserve">
<style type="text/css">
	.st0{fill-rule:evenodd;clip-rule:evenodd;fill:#FFFFFF;}
</style>
<path class="st0" d="M293.2,55.9l29.5-50.2h98.9V14h-74.2l-7.3,12.7h39.2l-4.7,8.3h-39.4l-7.5,12.7H367l-4.9,8.3H293.2z M222.3,42.9
	h29.7c-1,1.4-1.4,2.9-0.8,3.8c1.1,1.6,4.9,0.8,5.9,0.5c2-0.6,3.1-1.9,4-3.5l5-8.7h-30.3c-6.3,0-6.5-3.8-4-8.3l9.3-15.8
	c2.8-4.6,6.5-5.1,11.3-5.1h52.6c5.3,0,5.3,4.3,3.2,8.3l-3,5.3h-29.8c0.9-1.7,1-3.3,0.2-4.2c-1.2-1.6-4.2-1.2-5.8-0.4
	c-1.3,0.7-2.4,1.9-3.5,3.8l-4.8,8.1h29.3c6.2,0,7.1,4.5,5.2,8.3l-8.9,14.9c-2.4,3.9-6.5,6.1-11.3,6.1h-52.2c-5.1,0-6.9-3.4-4.7-7.1
	L222.3,42.9L222.3,42.9z M159.7,14c4.8-8.3,12.7-8.3,18.8-8.3h44.7c4.7,0,8.7,3.9,6.1,8.3l-19.7,33.6c-4.2,6.7-7.5,8.3-12.9,8.3h-52
	c-5.1,0-7.5-3.8-4.7-8.3L159.7,14z M185.7,18.6l-15.1,25.1c-0.5,0.9-0.7,1.7-0.4,2.4c1,2.1,6.8,1.7,8.8,1.3c2.9-0.7,3.6-2.7,4.3-3.7
	l14.9-25.1c1-1.8,0.9-2.9,0-3.6c-1.3-1-5.4-1.1-7.6-0.5C188.6,15,187.1,16.2,185.7,18.6L185.7,18.6z M87.6,5.7h57.4
	c4.6,0,8.1,4.1,5.1,9.1l-5.9,10.1c-2.6,4.6-6.9,6.7-10.1,6.7c3.2,1.8,3.2,4.9,1.6,7.7l-5.9,10.3c-1.6,2.8-4,6.3-11.3,6.3H8.2v-8.3
	h54.6L87.6,5.7z M104.8,26.7h14.6c3.4,0,4.8-1.8,5.5-3.4l3-4.8c1.2-2.2,1.2-4.6-1.4-4.6h-14.3L104.8,26.7z M92.3,47.6h14.6
	c3.4,0,4.8-1.8,5.5-3.4l3-4.8c1.2-2.2,1.2-4.6-1.4-4.6H99.8L92.3,47.6z"/>
</svg>
